<svg xmlns="http://www.w3.org/2000/svg" width="32" height="32" viewBox="0 0 32 32">
<path fill="#21252B" fill-rule="evenodd" d="M15.967 0C24.78.004 31.924 7.152 31.92 15.967c-.004 8.814-7.153 15.957-15.967 15.953C7.147 31.908.012 24.773 0 15.967v-.014C.004 7.139 7.152-.004 15.967 0zm0 30.88c8.236-.003 14.91-6.684 14.906-14.92-.003-8.237-6.684-14.91-14.92-14.907-8.23.012-14.899 6.683-14.907 14.914v.007c.004 8.236 6.684 14.91 14.92 14.906zm12.817-14.868c-.013 7.073-5.758 12.796-12.831 12.783a12.807 12.807 0 0 1-8.763-3.427c-5.18-4.815-5.477-12.919-.661-18.1a.522.522 0 0 1 .119-.18.504.504 0 0 1 .118-.078c.09-.092.18-.183.273-.272 5.067-4.917 13.162-4.796 18.08.272a.46.46 0 0 1 .258.28 12.807 12.807 0 0 1 3.407 8.722zM15.953 27.748c6.298-.012 11.474-4.973 11.754-11.265h-1.793a.523.523 0 1 1 0-1.046h1.82a11.718 11.718 0 0 0-2.866-7.185l-1.242 1.242a.543.543 0 0 1-.767-.768l1.318-1.234a11.733 11.733 0 0 0-7.673-3.286v1.765a.523.523 0 1 1-1.046 0V4.178a11.733 11.733 0 0 0-7.673 3.279l1.27 1.27a.545.545 0 0 1-.775.767L7.066 8.252a11.719 11.719 0 0 0-2.874 7.192h1.793a.523.523 0 1 1 0 1.046H4.192c.283 6.292 5.463 11.25 11.76 11.258zm5.343-9.542c.72 0 1.305.584 1.305 1.304v3.453c0 .72-.584 1.305-1.305 1.305h-10.68c-.72 0-1.304-.584-1.304-1.305V19.51c0-.72.584-1.304 1.305-1.304h10.68zm.237 4.757l.021-3.453a.258.258 0 0 0-.258-.258h-10.68a.258.258 0 0 0-.257.258v3.453c0 .143.115.258.258.258h10.658a.258.258 0 0 0 .258-.258zm-5.099-7.198a.523.523 0 0 1-.962.404l-3.077-7.324a.523.523 0 0 1 .963-.405l3.076 7.325z"/>
</svg>
