<svg xmlns="http://www.w3.org/2000/svg" width="32" height="32" viewBox="0 0 32 32">
<path fill="#21252B" fill-rule="evenodd" d="M15.98 5.099c6.011.01 10.875 4.893 10.864 10.905-.014 5.997-4.88 10.851-10.878 10.851-6.008 0-10.878-4.87-10.878-10.878S9.958 5.099 15.966 5.099h.013zm-.014 20.752c5.443-.003 9.859-4.405 9.88-9.848l.001-.033c0-5.457-4.424-9.88-9.88-9.88-5.458 0-9.882 4.423-9.882 9.88 0 5.457 4.424 9.881 9.881 9.881zM29.371 7.286a15.958 15.958 0 0 1 .665 16.278v.04a16.118 16.118 0 0 1-5.32 5.765.497.497 0 0 1-.106.066 15.892 15.892 0 0 1-8.185 2.527H15.966a15.898 15.898 0 0 1-7.141-1.67l-.08-.039a16.112 16.112 0 0 1-6.078-5.432l-.033-.054A15.958 15.958 0 0 1 1.87 8.53v-.054a16.112 16.112 0 0 1 5-5.612l.074-.053a15.959 15.959 0 0 1 16.37-1.03h.047a16.112 16.112 0 0 1 5.984 5.432c.011.024.02.048.027.073zm.226 14.921a14.901 14.901 0 0 0 1.37-6.057c-.293-.26-1.064-.898-1.849-.665a.5.5 0 0 1-.286-.958 2.6 2.6 0 0 1 2.095.366 14.9 14.9 0 0 0-2.254-6.875c-.751-.04-1.729.08-1.875.425a.499.499 0 1 1-.918-.392c.333-.765 1.317-.984 2.115-1.03a15.113 15.113 0 0 0-4.874-4.23c-.878.452-1.809 1.124-1.902 1.523a.499.499 0 0 1-.485.386h-.113l-.015-.004a.499.499 0 0 1-.358-.608c.166-.718 1.037-1.383 1.769-1.809A14.914 14.914 0 0 0 15.953.996h-.725a2.853 2.853 0 0 0-.884 1.862.499.499 0 0 1-.48.518.499.499 0 0 1-.498-.478c-.005-.632.18-1.25.532-1.776-2.245.311-4.39 1.13-6.27 2.394-.113.765-.1 1.762.259 2.094a.499.499 0 0 1-.665.732 2.8 2.8 0 0 1-.665-2.048 15.107 15.107 0 0 0-3.763 4.495c.033.412.22 1.689 1.083 2.254a.5.5 0 1 1-.545.838 3.265 3.265 0 0 1-1.243-1.636 14.921 14.921 0 0 0-1.144 5.738v.745a3.644 3.644 0 0 0 2.081 1.004.499.499 0 1 1 0 .998 3.989 3.989 0 0 1-1.915-.665 14.901 14.901 0 0 0 2.281 6.057 2.62 2.62 0 0 0 1.935 0 .499.499 0 0 1 .499.838c-.402.24-.863.362-1.33.352H4.23a15.1 15.1 0 0 0 4.78 3.944 2.187 2.187 0 0 0 1.55-1.124.499.499 0 0 1 .938.339 2.607 2.607 0 0 1-1.25 1.363 14.92 14.92 0 0 0 5.718 1.137h.246c.632-.718 1.144-1.563 1.084-1.802a.499.499 0 1 1 .904-.346c.233.599-.186 1.403-.665 2.068a14.895 14.895 0 0 0 6.37-2.194c.054-.751-.053-1.516-.246-1.616a.499.499 0 1 1 .472-.878c.579.313.778 1.144.778 1.81a15.114 15.114 0 0 0 4.13-4.682c-.306-.698-.792-1.416-1.104-1.456a.502.502 0 1 1 .12-.998 2.447 2.447 0 0 1 1.542 1.33z"/>
</svg>
