<svg xmlns="http://www.w3.org/2000/svg" width="32" height="32" viewBox="0 0 32 32">
<path fill="#21252B" fill-rule="evenodd" d="M29.982 7c1.684 1.676 1.684 3.702 0 5.386L21.44 20.98l-.002.002a1.41 1.41 0 0 1-1.994-.002l-1.93-1.93-2.27 2.271a.557.557 0 0 1-.304.156l-2.078.327-.386 2.144a.557.557 0 0 1-.43.445l-1.944.43-.156 1.61a.557.557 0 0 1-.163.342L8.678 27.88a.557.557 0 0 1-.46.156l-1.484-.186-.052 1.788a.557.557 0 0 1-.163.379l-1.751 1.751a.556.556 0 0 1-.394.163H1.258v.015H1.25a.556.556 0 0 1-.549-.564l.015-3.94a.556.556 0 0 1 .163-.386l9.647-9.646-.58-.579a.556.556 0 0 1 0-.786l2.279-2.256-1.93-1.93-.002-.002a1.41 1.41 0 0 1 .003-1.994l8.585-8.6c1.677-1.684 3.703-1.684 5.387 0L29.982 7zM14.577 20.414l2.145-2.144-3.71-3.71-1.878 1.877.579.579a.556.556 0 0 1 0 .786l-9.84 9.87-.089 3.138h2.338l1.432-1.432.06-2.182.003-.049a.557.557 0 0 1 .62-.485l1.87.2.742-.742.178-1.818a.556.556 0 0 1 .43-.49l1.974-.437.4-2.145a.557.557 0 0 1 .46-.452l2.286-.364zM29.24 11.6c1.573-1.588.868-2.946 0-3.814L23.482 2.05a2.797 2.797 0 0 0-1.915-.935c-.734.04-1.42.378-1.9.935l-8.585 8.555a.297.297 0 0 0 .03.482l2.322 2.323 4.453 4.452 2.322 2.316.003.003a.297.297 0 0 0 .42-.003L29.24 11.6zm-2.414-1.946a.557.557 0 0 1-.814.759l-5.157-5.158a.559.559 0 0 1 0-.814.557.557 0 0 1 .786.028l5.157 5.157c.01.009.02.018.028.028z"/>
</svg>
