<svg xmlns="http://www.w3.org/2000/svg" width="32" height="32" viewBox="0 0 32 32">
<path fill="#21252B" fill-rule="evenodd" d="M30.4 2.133c.295 0 .533.239.533.534v28.8A.533.533 0 0 1 30.4 32H1.6a.533.533 0 0 1-.533-.533v-28.8c0-.295.238-.534.533-.534h3.733v-1.6c0-.295.239-.533.534-.533H9.6c.295 0 .533.238.533.533v1.6h11.734v-1.6c0-.295.238-.533.533-.533h3.733c.295 0 .534.238.534.533v1.6H30.4zm-7.467-1.066v3.2H25.6v-3.2h-2.667zm-16.533 0v3.2h2.667v-3.2H6.4zM2.133 3.2V8h27.734V3.2h-3.2v1.6a.533.533 0 0 1-.534.533H22.4a.533.533 0 0 1-.533-.533V3.2H10.133v1.6a.533.533 0 0 1-.533.533H5.867a.533.533 0 0 1-.534-.533V3.2h-3.2zm0 27.733h27.734V9.067H2.133v21.866zm18.134-18.666h5.866V27.733H5.867V12.267h14.4zm-3.734 1.066v3.734h3.734v-3.734h-3.734zm3.734 8.534v-3.734h-3.734v3.734h3.734zm-8.534-3.734v3.734h3.734v-3.734h-3.734zm0-4.8v3.734h3.734v-3.734h-3.734zm-4.8 0v3.734h3.734v-3.734H6.933zm0 4.8v3.734h3.734v-3.734H6.933zm3.734 8.534v-3.734H6.933v3.734h3.734zm4.8 0v-3.734h-3.734v3.734h3.734zm4.8 0v-3.734h-3.734v3.734h3.734zm4.8 0v-3.734h-3.734v3.734h3.734zm0-4.8v-3.734h-3.734v3.734h3.734zm0-8.534h-3.734v3.734h3.734v-3.734z"/>
</svg>
