<svg xmlns="http://www.w3.org/2000/svg" width="32" height="32" viewBox="0 0 32 32">
<path fill="#21252B" fill-rule="evenodd" d="M14.49.959l6.738 6.897v23.185H0V.959h14.49zm.37 2.2v4.32h4.219l-4.22-4.32zm5.094 26.608V8.752h-6.368v-6.52H1.274v27.535h18.68zM29.771 7H32v9h-1.274V8.274h-.955v17.114a3.109 3.109 0 0 1-2.468 3.038v1.978h-1.274v-1.978a3.109 3.109 0 0 1-2.467-3.038V5.965a3.108 3.108 0 0 1 3.104-3.104 3.108 3.108 0 0 1 3.105 3.104V7zm-1.273 18.388V8.274h-3.662v17.114c0 1.01.822 1.831 1.83 1.831 1.01 0 1.832-.82 1.832-1.83zm0-18.388V5.965c0-1.01-.822-1.83-1.831-1.83-1.01 0-1.831.821-1.831 1.83V7h3.662zM4.139 5.99h7.005v1.274H4.14V5.99zm0 5.191h12.842v1.274H4.14V11.18zm0 3.456h12.842v1.274H4.14v-1.274zm0 3.455h12.842v1.274H4.14v-1.274z"/>
</svg>
