<svg xmlns="http://www.w3.org/2000/svg" width="16" height="16" viewBox="0 0 16 16">
<path fill="#484848" fill-rule="evenodd" d="M3.333 2H6c.736 0 1.333.597 1.333 1.333V6c0 .736-.597 1.333-1.333 1.333H3.333A1.333 1.333 0 0 1 2 6V3.333C2 2.6 2.6 2 3.333 2zm0 1.333V6H6V3.333H3.333zM10 2h2.667C13.403 2 14 2.597 14 3.333V6c0 .736-.597 1.333-1.333 1.333H10A1.333 1.333 0 0 1 8.667 6V3.333C8.667 2.6 9.267 2 10 2zm0 1.333V6h2.667V3.333H10zM3.333 8.667H6c.736 0 1.333.597 1.333 1.333v2.667C7.333 13.403 6.736 14 6 14H3.333A1.333 1.333 0 0 1 2 12.667V10c0-.733.6-1.333 1.333-1.333zm0 1.333v2.667H6V10H3.333zM10 8.667h2.667C13.403 8.667 14 9.264 14 10v2.667c0 .736-.597 1.333-1.333 1.333H10a1.333 1.333 0 0 1-1.333-1.333V10c0-.733.6-1.333 1.333-1.333zM10 10v2.667h2.667V10H10z"/>
</svg>
