<svg xmlns="http://www.w3.org/2000/svg" width="32" height="32" viewBox="0 0 32 32">
<path fill="#21252B" fill-rule="evenodd" d="M31.383 14.444L15.828 0 .272 14.444a.543.543 0 0 0 .738.796l1.8-1.672v18.088h26.034V13.567l1.8 1.672a.54.54 0 0 0 .767-.028.542.542 0 0 0-.028-.767zm-18.81 16.127v-8.678a3.258 3.258 0 0 1 3.255-3.254 3.258 3.258 0 0 1 3.254 3.254v8.678h-6.509zm15.187 0h-7.593v-8.678a4.344 4.344 0 0 0-4.34-4.34 4.344 4.344 0 0 0-4.338 4.34v8.678H3.895V12.56L15.828 1.48 27.76 12.56v18.01z"/>
</svg>
