<svg xmlns="http://www.w3.org/2000/svg" width="32" height="32" viewBox="0 0 32 32">
<path fill="#21252B" fill-rule="evenodd" d="M31.584 10.498a1.11 1.11 0 0 1 0 1.567l-4.466 4.466-3.442 3.442c-.207.21-.489.328-.783.327a1.16 1.16 0 0 1-.79-.302l-.092-.13a28.375 28.375 0 0 0-2.585-4.318c-1.308 1.432-5.447 6.083-6.86 7.933a4.318 4.318 0 0 0-.863 4.189.463.463 0 0 1-.124.444l-3.7 3.701a.463.463 0 0 1-.655 0l-3.479-3.479a.443.443 0 0 1-.037-.05l-.05-.03-3.478-3.48a.463.463 0 0 1 0-.653l3.7-3.701a.469.469 0 0 1 .445-.124c1.45.469 3.04.138 4.182-.87 1.826-1.418 6.515-5.595 7.94-6.865a31.167 31.167 0 0 0-4.405-2.671l-.13-.093-.005-.005a1.104 1.104 0 0 1 .006-1.562L16.847 3.3l2.98-2.985a1.135 1.135 0 0 1 1.567 0l10.19 10.184zM11.84 22.903c1.492-1.937 5.878-6.847 7.02-8.111-.272-.303-.58-.667-.833-.92-.253-.252-.537-.5-.827-.746-1.252 1.123-6.175 5.515-8.112 7.02a5.206 5.206 0 0 1-4.731 1.092l-3.208 3.208L4.3 27.622a.42.42 0 0 1 .037.05l.05.03 3.152 3.14 3.208-3.207a5.212 5.212 0 0 1 1.092-4.732zm11.177-3.584l3.115-3.115L15.725 5.83 12.61 8.913a.179.179 0 0 0-.056.13.186.186 0 0 0 0 .086c.63.308 4.04 2.042 6.132 4.133.388.39.755.802 1.098 1.234a27.811 27.811 0 0 1 3.022 4.879.178.178 0 0 0 .08 0c.05 0 .096-.02.13-.056zm3.77-3.769l.826-.802L17.174 4.262l-.826.851L26.785 15.55zm1.48-1.48l.826-.827L18.655 2.818l-.827.827L28.266 14.07zm2.658-2.659a.185.185 0 0 0 0-.259L20.74.974a.154.154 0 0 0-.253 0l-1.184 1.178 10.443 10.437 1.178-1.178zM8.594 23.304a2.35 2.35 0 1 1-3.328 3.319 2.35 2.35 0 0 1 3.328-3.319zm-.648 2.671a1.425 1.425 0 0 0-1.012-2.467 1.425 1.425 0 0 0-1.011 2.467 1.462 1.462 0 0 0 2.017 0h.006z"/>
</svg>
