<svg xmlns="http://www.w3.org/2000/svg" width="32" height="32" viewBox="0 0 32 32">
<path fill="#21252B" fill-rule="evenodd" d="M18.532 10.44a2.151 2.151 0 1 1-.466 2.344 2.151 2.151 0 0 1 .466-2.344zm2.424 2.424a1.276 1.276 0 1 0-1.805-1.805 1.276 1.276 0 1 0 1.805 1.805zm8.683-10.212a5.082 5.082 0 0 1-3.04 8.466 1.79 1.79 0 0 0-1.523 1.528 5.038 5.038 0 0 1-4.837 4.366l-3.227 3.228a5.042 5.042 0 0 1-4.37 4.84 1.794 1.794 0 0 0-1.524 1.53A5.065 5.065 0 0 1 6.106 31h-.014a5.074 5.074 0 0 1-3.715-8.527 5.088 5.088 0 0 1 2.96-1.566 1.906 1.906 0 0 0 1.61-1.606 5.077 5.077 0 0 1 4.842-4.313l3.198-3.199a5.031 5.031 0 0 1 1.347-3.273 5.088 5.088 0 0 1 2.96-1.567 1.906 1.906 0 0 0 1.611-1.606 5.07 5.07 0 0 1 8.734-2.69zM15.026 22.916a4.231 4.231 0 0 0 .013-5.71l-.011-.013a4.194 4.194 0 0 0-7.215 2.236 2.785 2.785 0 0 1-2.349 2.345 4.2 4.2 0 0 0 .628 8.351h.012a4.188 4.188 0 0 0 4.147-3.638 2.67 2.67 0 0 1 2.272-2.277 4.193 4.193 0 0 0 2.503-1.294zm1.9-3.828l2.161-2.161a5.036 5.036 0 0 1-4.01-3.99l-2.142 2.142a5.09 5.09 0 0 1 2.758 1.545 4.996 4.996 0 0 1 1.233 2.464zm12.059-10.13a4.232 4.232 0 0 0 .001-5.723A4.208 4.208 0 0 0 25.91 1.9a4.196 4.196 0 0 0-4.139 3.57 2.784 2.784 0 0 1-2.349 2.345 4.194 4.194 0 1 0 4.787 4.713 2.67 2.67 0 0 1 2.273-2.276 4.193 4.193 0 0 0 2.503-1.294zm-3.066-5.013a2.151 2.151 0 1 1 0 0zm.902 3.053a1.276 1.276 0 0 0-1.805-1.804 1.276 1.276 0 0 0 1.805 1.804zM6.095 23.768a2.151 2.151 0 1 1 0 0zm.902 3.054a1.276 1.276 0 0 0-1.805-1.805 1.276 1.276 0 0 0 1.805 1.805zm3.442-8.29a2.151 2.151 0 1 1 3.042 3.042 2.151 2.151 0 0 1-3.042-3.041zm2.424 2.424a1.276 1.276 0 1 0-1.806-1.805 1.276 1.276 0 0 0 1.806 1.805z"/>
</svg>
