<svg xmlns="http://www.w3.org/2000/svg" width="16" height="16" viewBox="0 0 16 16">
<path fill="#484848" fill-rule="evenodd" d="M12.667 6.667v4c.736 0 1.333.597 1.333 1.333v1.333c0 .737-.597 1.334-1.333 1.334H3.333A1.333 1.333 0 0 1 2 13.333V12c0-.733.6-1.333 1.333-1.333v-4A1.333 1.333 0 0 1 2 5.333v-.666a.667.667 0 0 1 .367-.6L7.7 1.4a.667.667 0 0 1 .6 0l5.333 2.667a.667.667 0 0 1 .367.6v.666c0 .737-.597 1.334-1.333 1.334zm-4 0H7.333v4h1.334v-4zm2.666 0H10v4h1.333v-4zM6 6.667H4.667v4H6v-4zM3.333 5.08v.253h9.334V5.08L8 2.747 3.333 5.08zm0 6.92v1.333h9.334V12H3.333z"/>
</svg>
