<svg xmlns="http://www.w3.org/2000/svg" width="20" height="20" viewBox="0 0 20 20">
<path fill="#FFF" fill-rule="evenodd" d="M14.633 14.717a6.667 6.667 0 0 1-9.433 0l-4.117-4.134a.833.833 0 0 1 0-1.183l4.125-4.125a6.667 6.667 0 0 1 9.434 0L18.767 9.4a.833.833 0 0 1 0 1.183l-4.125 4.125-.009.009zm-8.25-1.184a5 5 0 0 0 7.067 0L16.983 10 13.45 6.467a5 5 0 0 0-7.067 0L2.833 10l3.542 3.533h.008zm3.534-.2a3.333 3.333 0 1 1 0-6.666 3.333 3.333 0 0 1 0 6.666zm0-1.666a1.667 1.667 0 1 0 0-3.334 1.667 1.667 0 0 0 0 3.334z"/>
</svg>
